<svg id="b" xmlns="http://www.w3.org/2000/svg" width="145.29" height="151.078" viewBox="0 0 145.29 151.078">
  <g id="c" transform="translate(0 0)">
    <g id="Group_1046" data-name="Group 1046">
      <g id="Group_1043" data-name="Group 1043" transform="translate(0 77.708)">
        <path id="Path_38025" data-name="Path 38025" d="M9.24,70.242C3.685,70.242,0,73.651,0,78.83V94.046c0,5.179,3.685,8.587,9.24,8.587s9.152-3.408,9.152-8.587V91.567H15.548v2.379c0,3.641-2.523,6.02-6.308,6.02s-6.352-2.379-6.352-6.02V78.907c0-3.641,2.523-6.02,6.352-6.02s6.308,2.379,6.308,6.02v2.379h2.844V78.807c0-5.179-3.641-8.587-9.152-8.587v.022Z" transform="translate(0 -70.22)" fill="#0d6efd"/>
        <path id="Path_38026" data-name="Path 38026" d="M29.349,70.24c-5.644,0-9.429,3.5-9.429,8.82V93.811c0,5.323,3.785,8.82,9.429,8.82s9.34-3.5,9.34-8.82V79.06c0-5.323-3.685-8.82-9.34-8.82Zm6.485,23.483c0,3.785-2.612,6.252-6.485,6.252s-6.54-2.479-6.54-6.252V79.159c0-3.785,2.567-6.252,6.54-6.252s6.485,2.479,6.485,6.252V93.723Z" transform="translate(2.124 -70.218)" fill="#0d6efd"/>
        <path id="Path_38027" data-name="Path 38027" d="M56.436,95.064l.188,1.97h-.277L44.761,70.74H41.22v31.285h2.844V77.7l-.188-1.959h.288l11.575,26.283h3.552V70.74H56.436Z" transform="translate(4.395 -70.165)" fill="#0d6efd"/>
        <path id="Path_38028" data-name="Path 38028" d="M78.531,70.74H60.88v2.667h7.426v28.618H71.15V73.407h7.381Z" transform="translate(6.492 -70.165)" fill="#0d6efd"/>
        <path id="Path_38029" data-name="Path 38029" d="M84.939,70.74l-8.5,31.285h3.076l2.147-8.5H92.077l2.191,8.5h3.22L88.945,70.74H84.939ZM82.372,90.914,86.765,73.6H87l4.438,17.319Z" transform="translate(8.151 -70.165)" fill="#0d6efd"/>
        <path id="Path_38030" data-name="Path 38030" d="M106.49,70.242c-5.555,0-9.24,3.408-9.24,8.587V94.046c0,5.179,3.685,8.587,9.24,8.587s9.152-3.408,9.152-8.587V91.567H112.8v2.379c0,3.641-2.523,6.02-6.308,6.02s-6.352-2.379-6.352-6.02V78.907c0-3.641,2.523-6.02,6.352-6.02s6.308,2.379,6.308,6.02v2.379h2.844V78.807c0-5.179-3.641-8.587-9.152-8.587v.022Z" transform="translate(10.37 -70.22)" fill="#0d6efd"/>
        <path id="Path_38031" data-name="Path 38031" d="M115.34,73.407h7.426v28.618h2.844V73.407h7.381V70.74H115.34Z" transform="translate(12.299 -70.165)" fill="#0d6efd"/>
      </g>
      <g id="Group_1044" data-name="Group 1044" transform="translate(28.429 118.675)">
        <path id="Path_38032" data-name="Path 38032" d="M40.4,123.3v-.376c2.479-.564,4.249-3.22,4.249-7.049,0-4.858-3.22-8.123-8.123-8.123H25.69v31.285H37.265c4.9,0,8.123-3.364,8.123-8.167,0-4.061-1.959-6.905-4.991-7.558h0Zm-8.311-10H34.7a3.462,3.462,0,0,1,3.552,3.74,3.381,3.381,0,0,1-3.552,3.641H32.086Zm3.364,20.174H32.086v-7.7h3.364c2.147,0,3.552,1.538,3.552,3.829S37.6,133.468,35.451,133.468Z" transform="translate(-25.69 -107.186)" fill="#0d6efd"/>
        <path id="Path_38033" data-name="Path 38033" d="M55.124,107.24c-6.208,0-10.314,3.829-10.314,9.617v13.169c0,5.788,4.106,9.617,10.314,9.617s10.314-3.829,10.314-9.617V116.857C65.438,111.069,61.376,107.24,55.124,107.24Zm3.917,22.642a3.9,3.9,0,0,1-7.791,0V117a3.9,3.9,0,0,1,7.791,0Z" transform="translate(-23.651 -107.24)" fill="#0d6efd"/>
        <path id="Path_38034" data-name="Path 38034" d="M75.834,107.24c-6.208,0-10.314,3.829-10.314,9.617v13.169c0,5.788,4.106,9.617,10.314,9.617s10.314-3.829,10.314-9.617V116.857C86.148,111.069,82.086,107.24,75.834,107.24Zm3.917,22.642a3.9,3.9,0,0,1-7.791,0V117a3.9,3.9,0,0,1,7.791,0Z" transform="translate(-21.443 -107.24)" fill="#0d6efd"/>
        <path id="Path_38035" data-name="Path 38035" d="M99.6,121.428l7.846-13.678h-7.326l-6.4,13.069h-.376V107.75h-6.4v31.273h6.4v-9.849l1.959-2.1,4.714,11.952h7.569Z" transform="translate(-19.158 -107.186)" fill="#0d6efd"/>
      </g>
      <g id="Group_1045" data-name="Group 1045" transform="translate(48.426)">
        <path id="Path_38036" data-name="Path 38036" d="M90.67,7.713a1.516,1.516,0,1,0,0-3.032H62.285V1.516a.646.646,0,0,0-.022-.166.4.4,0,0,0-.033-.177l-.033-.1s-.033-.111-.055-.166L62,.653S61.931.575,61.887.52L61.8.432s-.066-.055-.122-.1a1.16,1.16,0,0,0-.122-.089L61.433.177s-.1-.044-.144-.066c-.044,0-.077-.033-.155-.055A.773.773,0,0,1,61,.022L60.7,0h-.166a.361.361,0,0,0-.166.033L56.608.974,52.857.066a.992.992,0,0,0-.177-.022h-.266a.6.6,0,0,0-.166.022A1.234,1.234,0,0,0,52.1.1a.624.624,0,0,0-.133.044l-.266.133s-.077.055-.122.089l-.1.089s-.055.055-.111.122a.968.968,0,0,0-.089.111l-.144.255a1.032,1.032,0,0,0-.055.155l-.044.133a1.607,1.607,0,0,0-.033.188V4.836a8.752,8.752,0,0,0-7.248,8.61V41.3a24.208,24.208,0,1,0,48.415-.022V20.639a1.521,1.521,0,0,0-1.516-1.527h-.542V7.713h.542Zm-28.385,0h24.8v4.172h-24.8V7.713Zm-.631-6.684ZM61.533.852Zm-.5-.31Zm-.4-.022ZM56.807,3.585Zm-2.756-.1,2.235.564.122-.476h0l.033.5a1.482,1.482,0,0,0,.443,0l2.379-.587v8.4H54.052V3.5h0ZM52.248.542ZM52.06.62Zm-.432.421Zm-.62,6.872v3.973h-.044a1.516,1.516,0,0,0,0,3.032H87.107v4.172H52.525a5.7,5.7,0,0,1-5.688-5.29v-.509A5.694,5.694,0,0,1,51.031,7.9h0ZM68,62.425a21.194,21.194,0,0,1-21.17-21.181v-21.2a8.733,8.733,0,0,0,5.688,2.114H89.165V41.266A21.189,21.189,0,0,1,68,62.425Z" transform="translate(-43.76 0)" fill="#0d6efd"/>
        <path id="Path_38037" data-name="Path 38037" d="M79.57,28.45H72.355a3.592,3.592,0,0,0-3.552,3.1H65.593a3.592,3.592,0,0,0-3.552-3.1H54.825a3.585,3.585,0,0,0-3.585,3.585v3.1a3.585,3.585,0,0,0,3.585,3.585h7.215a3.585,3.585,0,0,0,3.585-3.585v-.542h3.143v.542a3.585,3.585,0,0,0,3.585,3.585H79.57a3.585,3.585,0,0,0,3.585-3.585v-3.1A3.585,3.585,0,0,0,79.57,28.45ZM62.583,35.123a.543.543,0,0,1-.542.542H54.825a.543.543,0,0,1-.542-.542v-3.1a.543.543,0,0,1,.542-.542h7.215a.543.543,0,0,1,.542.542Zm17.529,0a.543.543,0,0,1-.542.542H72.355a.543.543,0,0,1-.542-.542v-3.1a.543.543,0,0,1,.542-.542H79.57a.543.543,0,0,1,.542.542Z" transform="translate(-42.962 3.034)" fill="#0d6efd"/>
        <path id="Path_38038" data-name="Path 38038" d="M71.449,44.29a1.518,1.518,0,0,0-1.516,1.516.543.543,0,0,1-.542.542H63.2a.543.543,0,0,1-.542-.542,1.516,1.516,0,1,0-3.032,0,3.585,3.585,0,0,0,3.585,3.585H69.4a3.585,3.585,0,0,0,3.585-3.585,1.518,1.518,0,0,0-1.516-1.516Z" transform="translate(-42.068 4.723)" fill="#0d6efd"/>
      </g>
    </g>
  </g>
</svg>
