<svg xmlns="http://www.w3.org/2000/svg" xmlns:xlink="http://www.w3.org/1999/xlink" width="168.31" height="34" viewBox="0 0 168.31 34">
  <defs>
    <clipPath id="clip-path">
      <rect id="Rectangle_53" data-name="Rectangle 53" width="168.31" height="34" transform="translate(0 0)" fill="#fff"/>
    </clipPath>
  </defs>
  <g id="Group_869" data-name="Group 869" transform="translate(0 0)">
    <g id="Group_868" data-name="Group 868" transform="translate(0 0)" clip-path="url(#clip-path)">
      <path id="Path_3228" data-name="Path 3228" d="M74.816,20.728c-3.028,0-5.038,1.858-5.038,4.682v8.3c0,2.825,2.01,4.682,5.038,4.682,3,0,4.988-1.858,4.988-4.682V32.358H78.252v1.3a3.452,3.452,0,0,1-6.9,0V25.461a3.452,3.452,0,0,1,6.9,0v1.3H79.8V25.41c0-2.824-1.985-4.682-4.988-4.682" transform="translate(-34.268 -10.179)" fill="#fff"/>
      <path id="Path_3229" data-name="Path 3229" d="M98.517,20.729c-3.079,0-5.14,1.908-5.14,4.809v8.041c0,2.9,2.062,4.81,5.14,4.81s5.09-1.909,5.09-4.81V25.538c0-2.9-2.01-4.809-5.09-4.809m3.537,12.8a3.552,3.552,0,0,1-7.1,0V25.589a3.552,3.552,0,0,1,7.1,0Z" transform="translate(-45.857 -10.18)" fill="#fff"/>
      <path id="Path_3230" data-name="Path 3230" d="M126.924,34.586l.1,1.069h-.153l-6.31-14.327h-1.934V38.377h1.552V25.119l-.1-1.068h.153l6.311,14.326h1.934V21.328h-1.552Z" transform="translate(-58.258 -10.474)" fill="#fff"/>
      <path id="Path_3231" data-name="Path 3231" d="M151.546,21.328h-9.619v1.451h4.046v15.6h1.552v-15.6h4.02Z" transform="translate(-69.7 -10.474)" fill="#fff"/>
      <path id="Path_3232" data-name="Path 3232" d="M165.009,21.328l-4.631,17.049h1.679l1.171-4.631H168.9l1.2,4.631h1.756L167.2,21.328Zm-1.4,10.993L166,22.881h.127l2.418,9.441Z" transform="translate(-78.761 -10.474)" fill="#fff"/>
      <path id="Path_3233" data-name="Path 3233" d="M190.066,20.728c-3.028,0-5.038,1.858-5.038,4.682v8.3c0,2.825,2.01,4.682,5.038,4.682,3,0,4.988-1.858,4.988-4.682V32.358H193.5v1.3a3.452,3.452,0,0,1-6.9,0V25.461a3.452,3.452,0,0,1,6.9,0v1.3h1.552V25.41c0-2.824-1.985-4.682-4.988-4.682" transform="translate(-90.866 -10.179)" fill="#fff"/>
      <path id="Path_3234" data-name="Path 3234" d="M206.478,22.778h4.046v15.6h1.552v-15.6h4.02V21.328h-9.618Z" transform="translate(-101.4 -10.474)" fill="#fff"/>
      <path id="Path_3235" data-name="Path 3235" d="M244.044,29.8v-.2c1.349-.3,2.316-1.756,2.316-3.842a4.181,4.181,0,0,0-4.429-4.428h-5.9V38.377h6.311a4.213,4.213,0,0,0,4.427-4.453c0-2.214-1.068-3.766-2.723-4.122m-4.53-5.446h1.425a1.885,1.885,0,0,1,1.934,2.036,1.857,1.857,0,0,1-1.934,1.985h-1.425Zm1.833,10.993h-1.833v-4.2h1.833a1.9,1.9,0,0,1,1.934,2.087,1.935,1.935,0,0,1-1.934,2.112" transform="translate(-115.912 -10.474)" fill="#fff"/>
      <path id="Path_3236" data-name="Path 3236" d="M264.3,20.728c-3.385,0-5.624,2.087-5.624,5.242v7.176c0,3.156,2.239,5.242,5.624,5.242,3.41,0,5.624-2.087,5.624-5.242V25.97c0-3.156-2.214-5.242-5.624-5.242m2.137,12.341a2.125,2.125,0,0,1-4.25,0V26.046a2.125,2.125,0,0,1,4.25,0Z" transform="translate(-127.035 -10.179)" fill="#fff"/>
      <path id="Path_3237" data-name="Path 3237" d="M288.852,20.728c-3.385,0-5.624,2.087-5.624,5.242v7.176c0,3.156,2.239,5.242,5.624,5.242,3.41,0,5.624-2.087,5.624-5.242V25.97c0-3.156-2.214-5.242-5.624-5.242m2.137,12.341a2.125,2.125,0,0,1-4.25,0V26.046a2.125,2.125,0,0,1,4.25,0Z" transform="translate(-139.092 -10.179)" fill="#fff"/>
      <path id="Path_3238" data-name="Path 3238" d="M315.523,28.784l4.275-7.456H315.8l-3.487,7.125h-.2V21.328h-3.486V38.378h3.486V33.008l1.069-1.145,2.57,6.515h4.123Z" transform="translate(-151.565 -10.474)" fill="#fff"/>
      <path id="Path_3239" data-name="Path 3239" d="M24.371,4a.79.79,0,0,0,0-1.58H9.626V.776A.692.692,0,0,0,9.617.688.762.762,0,0,0,9.6.6L9.586.549A.7.7,0,0,0,9.555.465L9.479.334A.7.7,0,0,0,9.423.265L9.38.219C9.362.2,9.344.188,9.319.168S9.28.138,9.259.124L9.2.091A.743.743,0,0,0,9.124.056C9.1.048,9.082.041,9.041.03A.621.621,0,0,0,8.974.013L8.818,0C8.8,0,8.772,0,8.733.009s-.049.007-.089.015L6.692.512,4.726.021A.774.774,0,0,0,4.635.008C4.612,0,4.589,0,4.549,0L4.5,0a.727.727,0,0,0-.088.009c-.021,0-.042.01-.076.019s-.048.014-.071.023L4.125.125A.734.734,0,0,0,4.06.172L4.007.217a.724.724,0,0,0-.056.06.628.628,0,0,0-.045.056L3.829.466A.684.684,0,0,0,3.8.545L3.78.613a.93.93,0,0,0-.015.1L3.758,2.486A4.545,4.545,0,0,0,0,6.958c0,.088,0,.176.008.248V21.428a12.577,12.577,0,0,0,21.47,8.889,12.5,12.5,0,0,0,3.681-8.9l0-10.709a.791.791,0,0,0-.79-.791H24.09V4ZM9.626,4H22.509v2.17H9.626ZM9.3.522h0ZM9.232.433ZM8.97.274h0ZM8.762.263ZM6.77,1.856ZM5.339,1.8,6.5,2.093l.062-.247h0l.014.262a.816.816,0,0,0,.231,0L8.046,1.8V6.167H5.339ZM4.4.278ZM4.3.317ZM4.08.535ZM3.758,4.1V6.167H3.733a.79.79,0,1,0,0,1.581H22.509V9.918H4.54A2.962,2.962,0,0,1,1.588,7.167V6.958A.16.16,0,0,0,1.582,6.9,2.96,2.96,0,0,1,3.758,4.1M12.585,32.42a11.011,11.011,0,0,1-11-11V10.4A4.539,4.539,0,0,0,4.54,11.5h19.04v9.928a11.01,11.01,0,0,1-11,10.993" transform="translate(0 0)" fill="#fff"/>
      <path id="Path_3240" data-name="Path 3240" d="M23.158,32.122H19.407a1.864,1.864,0,0,0-1.844,1.608H15.894a1.864,1.864,0,0,0-1.844-1.608H10.3a1.864,1.864,0,0,0-1.862,1.862v1.607A1.863,1.863,0,0,0,10.3,37.453H14.05a1.863,1.863,0,0,0,1.862-1.862V35.31h1.634v.281a1.863,1.863,0,0,0,1.862,1.862h3.751a1.863,1.863,0,0,0,1.862-1.862V33.984a1.864,1.864,0,0,0-1.862-1.862m-8.826,3.469a.282.282,0,0,1-.281.281H10.3a.282.282,0,0,1-.281-.281V33.984A.282.282,0,0,1,10.3,33.7H14.05a.282.282,0,0,1,.281.281Zm9.108,0a.282.282,0,0,1-.281.281H19.407a.282.282,0,0,1-.281-.281V33.984a.282.282,0,0,1,.281-.281h3.751a.282.282,0,0,1,.281.281Z" transform="translate(-4.144 -15.775)" fill="#fff"/>
      <path id="Path_3241" data-name="Path 3241" d="M24.06,50.019a.791.791,0,0,0-.79.79.281.281,0,0,1-.281.281H19.774a.282.282,0,0,1-.281-.281.79.79,0,0,0-1.581,0,1.864,1.864,0,0,0,1.862,1.862h3.215a1.864,1.864,0,0,0,1.862-1.862.791.791,0,0,0-.79-.79" transform="translate(-8.796 -24.564)" fill="#fff"/>
    </g>
  </g>
</svg>
